<?xml version="1.0" standalone="no"?>
<!DOCTYPE svg PUBLIC "-//W3C//DTD SVG 20010904//EN"
 "http://www.w3.org/TR/2001/REC-SVG-20010904/DTD/svg10.dtd">
<svg version="1.0" xmlns="http://www.w3.org/2000/svg"
 width="1254.000000pt" height="1254.000000pt" viewBox="0 0 1254.000000 1254.000000"
 preserveAspectRatio="xMidYMid meet">

<g transform="translate(0.000000,1254.000000) scale(0.100000,-0.100000)"
fill="#000000" stroke="none">
<path d="M6256 10580 c-77 -120 -82 -184 -27 -323 30 -76 41 -121 19 -82 -53
96 -152 129 -222 74 l-26 -20 54 -28 c29 -16 70 -34 89 -40 20 -7 48 -26 62
-43 22 -26 25 -37 20 -68 -5 -29 -3 -39 9 -43 9 -4 16 -18 16 -34 0 -37 -41
-122 -71 -150 -32 -29 -90 -53 -129 -53 -34 0 -99 30 -119 54 -19 23 -25 20
-44 -19 -37 -77 -148 -96 -231 -38 -96 67 -116 191 -43 270 l20 22 -27 7 c-30
7 -82 -11 -95 -33 -6 -12 -14 -10 -47 12 -21 15 -51 29 -66 32 -17 3 -28 13
-32 29 -15 57 -96 50 -125 -10 -18 -38 -2 -48 66 -42 52 4 52 4 108 -51 30
-30 75 -87 99 -126 44 -73 108 -230 121 -299 4 -21 9 -38 12 -38 3 0 45 13 94
30 326 109 740 111 1067 5 58 -19 107 -33 108 -32 1 1 13 44 27 94 44 154 149
337 227 395 26 19 42 22 85 20 29 -2 56 1 59 6 10 17 -11 60 -39 78 -32 21
-71 7 -85 -31 -5 -14 -17 -25 -27 -25 -10 0 -37 -11 -60 -24 l-42 -24 -40 20
c-28 14 -50 18 -71 13 l-30 -7 30 -29 c99 -99 19 -282 -130 -297 -59 -5 -107
20 -135 71 l-18 34 -47 -29 c-97 -60 -194 -42 -245 46 -38 66 -50 124 -30 146
11 12 14 26 10 43 -5 17 0 37 12 58 17 29 34 40 165 105 21 11 37 22 38 27 0
4 -15 16 -32 28 -59 36 -148 6 -184 -63 -28 -54 -24 -24 7 58 46 117 45 187
-3 279 -60 116 -57 114 -102 45z"/>
<path d="M5780 10102 c0 -5 13 -38 29 -74 17 -37 28 -74 25 -86 -15 -56 59
-87 91 -38 20 30 8 59 -32 78 -15 7 -42 38 -60 68 -31 52 -53 73 -53 52z"/>
<path d="M6740 10052 c-25 -34 -55 -67 -68 -73 -26 -15 -39 -55 -25 -78 13
-20 60 -26 79 -10 8 6 14 29 14 50 0 21 11 64 25 95 14 32 24 62 22 67 -1 5
-23 -18 -47 -51z"/>
<path d="M6110 9599 c-112 -11 -309 -52 -390 -81 l-65 -23 -6 -63 c-3 -34 -8
-64 -10 -66 -2 -2 -47 -21 -99 -41 -334 -132 -625 -341 -855 -617 -172 -205
-311 -463 -395 -733 -108 -344 -122 -738 -40 -1090 124 -531 444 -997 889
-1294 817 -545 1890 -438 2588 258 233 231 412 522 516 837 77 235 107 424
107 678 0 241 -33 440 -111 671 -198 584 -631 1045 -1197 1275 -128 52 -129
53 -131 141 l-1 45 -84 28 c-220 71 -477 98 -716 75z m495 -157 c155 -38 435
-146 598 -229 409 -209 723 -528 921 -937 348 -716 266 -1552 -213 -2194 -85
-113 -270 -299 -391 -391 -285 -219 -643 -368 -987 -412 -136 -17 -404 -15
-535 5 -426 63 -824 255 -1131 546 -525 497 -761 1250 -612 1950 125 585 469
1067 984 1377 206 123 539 247 806 299 107 21 455 12 560 -14z"/>
<path d="M6143 9443 c15 -2 37 -2 50 0 12 2 0 4 -28 4 -27 0 -38 -2 -22 -4z"/>
<path d="M6307 9324 c-4 -4 -7 -24 -7 -45 0 -43 12 -49 101 -49 74 0 282 -36
389 -67 270 -78 524 -219 753 -419 265 -232 471 -585 566 -969 119 -484 14
-1040 -277 -1476 -381 -569 -1054 -887 -1733 -819 -608 62 -1140 398 -1443
913 -112 190 -200 433 -242 662 -25 138 -25 461 -1 593 76 404 263 771 527
1031 196 193 426 342 675 436 111 42 320 92 435 105 216 23 205 20 208 63 l3
37 -78 0 c-105 0 -292 -32 -434 -74 -369 -108 -696 -318 -937 -601 -234 -274
-386 -600 -454 -975 -27 -153 -30 -435 -5 -595 109 -701 550 -1275 1183 -1540
515 -216 1077 -200 1579 44 397 194 695 495 895 906 332 680 257 1460 -199
2073 -137 184 -364 383 -569 501 -246 141 -528 234 -777 256 -38 3 -88 8 -111
11 -22 2 -43 1 -47 -2z"/>
<path d="M5599 8359 c-136 -20 -240 -71 -335 -164 -97 -95 -144 -206 -144
-341 0 -205 105 -347 400 -541 397 -261 465 -319 523 -440 30 -63 32 -76 32
-168 -1 -87 -4 -108 -27 -157 -37 -79 -72 -122 -137 -169 -76 -55 -164 -81
-276 -81 -166 -2 -305 55 -420 170 -78 78 -145 202 -170 316 -9 42 -19 76 -21
76 -2 0 -4 -94 -4 -209 l0 -209 103 -51 c180 -89 325 -125 502 -124 114 0 201
19 290 63 182 89 300 261 312 456 15 223 -96 388 -384 577 -73 48 -192 126
-264 173 -208 137 -282 223 -309 360 -38 192 104 384 317 429 88 19 136 19
231 -1 212 -43 367 -193 388 -374 13 -118 21 -56 20 163 l-1 222 -110 7 c-60
4 -171 11 -245 17 -151 12 -190 12 -271 0z"/>
<path d="M6308 7368 c-3 -1091 2 -1016 -78 -1055 l-45 -22 420 0 c469 -1 505
3 633 64 92 44 194 143 235 228 101 210 61 445 -102 607 -102 102 -191 146
-366 179 l-90 17 59 18 c189 56 327 191 365 357 27 115 0 261 -65 355 -49 73
-104 118 -189 159 -116 56 -188 65 -499 65 l-276 0 -2 -972z m594 909 c125
-61 206 -169 234 -314 44 -225 -53 -447 -235 -532 -53 -24 -67 -26 -228 -29
l-173 -4 0 457 0 457 173 -4 c165 -3 174 -4 229 -31z m49 -936 c126 -40 250
-145 303 -254 106 -218 67 -498 -90 -647 -76 -72 -156 -107 -278 -121 -132
-15 -296 -8 -331 15 -54 35 -55 45 -55 554 0 258 3 472 8 476 4 5 90 6 192 3
153 -3 197 -8 251 -26z"/>
<path d="M4166 5979 l-59 -60 61 -62 62 -61 60 60 60 60 -63 62 -62 62 -59
-61z"/>
<path d="M8262 5978 l-63 -61 60 -61 61 -61 60 60 60 60 -57 62 -58 62 -63
-61z"/>
<path d="M1337 5933 c-34 -33 -35 -33 1353 -33 1353 0 1360 0 1360 20 0 20 -7
20 -1353 20 -745 0 -1357 -3 -1360 -7z"/>
<path d="M8500 5920 c0 -20 7 -20 1360 -20 1353 0 1360 0 1360 20 0 20 -7 20
-1360 20 -1353 0 -1360 0 -1360 -20z"/>
<path d="M5400 4944 c0 -3 11 -15 25 -26 l25 -19 0 -200 0 -199 351 0 351 0
-5 -177 c-3 -120 -10 -198 -21 -238 -29 -106 -102 -236 -241 -430 -75 -105
-156 -223 -181 -262 l-44 -73 94 0 94 0 31 65 c16 36 67 121 113 188 226 335
258 392 294 535 21 82 24 118 24 268 l0 174 -350 0 -350 0 -2 198 -3 197 -102
3 c-57 1 -103 0 -103 -4z"/>
<path d="M1574 4551 c-2 -2 9 -12 25 -22 34 -21 27 14 71 -379 39 -348 47
-399 78 -485 65 -184 198 -300 388 -340 89 -19 157 -19 250 0 92 19 147 43
223 94 80 55 133 119 187 226 73 147 84 220 84 593 l0 312 -77 0 -78 0 1 -128
c1 -70 -2 -235 -7 -367 -8 -264 -22 -345 -79 -462 -84 -170 -250 -260 -433
-234 -155 22 -253 108 -306 268 -32 94 -30 99 31 107 126 17 257 111 314 226
53 105 66 178 71 393 l6 197 -109 -1 c-87 0 -104 -3 -86 -11 12 -6 25 -22 28
-35 12 -47 -4 -415 -20 -481 -34 -135 -99 -220 -188 -247 -69 -20 -76 -19 -82
13 -3 15 -22 182 -41 372 -20 190 -38 355 -41 367 -4 20 -10 22 -105 25 -55 2
-103 1 -105 -1z"/>
<path d="M3950 4550 c0 -3 15 -12 33 -20 20 -10 64 -57 120 -130 48 -63 92
-122 97 -131 6 -11 -14 -72 -71 -215 -44 -109 -121 -302 -170 -429 -99 -253
-109 -272 -145 -285 -13 -5 -24 -12 -24 -15 0 -3 49 -5 110 -5 l110 0 6 28
c18 75 234 835 239 840 3 3 7 3 8 1 2 -2 59 -78 125 -169 67 -91 174 -235 237
-320 64 -85 153 -206 198 -267 l82 -113 109 0 c109 0 117 3 74 24 -13 6 -103
118 -201 249 l-178 239 172 336 c94 185 178 345 187 355 8 9 24 17 34 17 11 0
16 5 13 10 -4 7 -42 9 -108 4 -56 -3 -103 -7 -104 -8 -1 -1 -53 -151 -116
-335 l-114 -333 -249 335 -249 336 -113 3 c-61 2 -112 1 -112 -2z"/>
<path d="M6718 4553 c-27 -4 -28 -6 -28 -66 0 -60 0 -61 16 -38 30 42 71 51
232 51 184 0 234 -13 302 -76 27 -25 58 -68 71 -97 24 -52 24 -54 27 -499 l3
-448 -351 0 -350 0 0 -30 0 -30 525 0 c289 0 525 3 525 6 0 4 -11 17 -26 30
-20 19 -36 24 -78 24 -38 0 -58 5 -67 17 -11 13 -15 102 -19 447 l-5 431 -33
67 c-50 102 -130 161 -260 193 -56 13 -426 27 -484 18z"/>
<path d="M8510 4549 c-25 -3 -38 -7 -29 -7 9 -1 23 -10 32 -20 16 -17 17 -91
17 -860 0 -667 3 -842 13 -842 44 0 118 -79 136 -145 7 -27 11 -285 11 -812
l0 -771 -67 -4 c-38 -2 -88 0 -113 3z"/>
<path d="M9084 4548 c-3 -4 0 -8 5 -8 6 0 20 -9 31 -20 20 -20 20 -33 20 -610
l0 -590 112 0 c111 0 119 3 76 24 l-23 12 -5 597 -5 597 -103 3 c-57 2 -105 0
-108 -5z"/>
<path d="M9715 4549 c-44 -3 -73 -6 -64 -7 46 -5 51 -29 90 -379 21 -184 45
-370 54 -412 62 -285 288 -458 570 -437 236 17 412 138 511 351 59 128 66 183
71 552 l5 331 -77 4 c-42 2 -79 1 -81 -1 -2 -2 -4 -140 -4 -305 0 -394 -15
-517 -81 -652 -87 -176 -262 -269 -447 -235 -151 28 -245 120 -296 290 -22 76
-21 81 17 81 51 1 163 45 218 87 90 68 151 184 178 337 6 33 11 135 11 228 l0
168 -107 0 c-99 -1 -106 -2 -82 -15 15 -8 29 -26 32 -42 7 -37 -10 -396 -22
-453 -29 -139 -101 -242 -187 -268 -53 -15 -84 -15 -84 1 -1 6 -20 185 -43
397 -20 184 -36 388 -38 425 -3 50 0 73 14 90 16 19 17 23 4 19 -8 -3 -26 -1
-39 4 -13 5 -29 8 -34 6 -6 -2 -45 -7 -89 -10z"/>
<path d="M3288 4530 l32 -20 0 -325 0 -325 80 0 80 0 0 345 0 345 -112 0 -113
0 33 -20z"/>
<path d="M5230 2630 c-52 -5 -60 -7 -39 -14 25 -7 26 -8 13 -44 -7 -21 -13
-81 -14 -139 0 -122 -4 -133 -40 -133 -16 0 -32 -4 -35 -10 -4 -6 13 -10 43
-10 78 0 86 15 92 178 5 133 6 137 30 150 40 21 110 9 137 -23 22 -24 23 -35
23 -166 l0 -139 28 0 27 0 -5 143 c-7 193 -13 202 -140 209 -30 2 -84 1 -120
-2z"/>
<path d="M5730 2628 c0 -4 5 -8 10 -8 6 0 10 -63 10 -170 l0 -170 28 0 27 0
-3 174 -3 174 -34 4 c-19 2 -35 0 -35 -4z"/>
<path d="M6057 2633 c-24 -23 0 -28 118 -25 l125 4 0 -70 c0 -104 -20 -159
-77 -209 -26 -23 -45 -44 -42 -48 11 -10 122 73 143 107 15 23 21 56 25 135 3
58 4 107 2 109 -7 7 -287 4 -294 -3z"/>
<path d="M6615 2630 c-22 -4 -34 -8 -27 -9 8 -1 12 -26 12 -91 l0 -90 53 1
c47 0 49 2 25 11 -27 9 -28 12 -28 84 l0 74 74 0 c99 0 106 -9 106 -142 0
-153 -18 -172 -149 -167 -60 3 -81 1 -81 -8 0 -20 199 -18 228 3 40 28 52 66
52 169 0 102 -14 149 -47 159 -34 10 -178 14 -218 6z"/>
<path d="M7153 2633 c-21 -3 -33 -10 -33 -20 0 -11 5 -13 18 -7 30 14 114 17
152 5 53 -16 60 -40 60 -196 l0 -135 28 0 27 0 -5 149 c-6 194 -6 193 -160
204 -30 2 -70 2 -87 0z"/>
<path d="M4685 2470 l-28 -29 29 -35 c16 -19 31 -35 35 -35 3 -1 20 14 38 33
l33 34 -33 31 c-19 17 -37 31 -40 31 -3 0 -18 -13 -34 -30z"/>
<path d="M7802 2467 l-32 -33 33 -32 33 -32 34 35 34 35 -29 30 c-16 16 -32
30 -35 30 -3 0 -20 -15 -38 -33z"/>
<path d="M6055 2310 c0 -154 2 -180 15 -178 33 7 41 49 38 205 l-3 153 -25 0
-25 0 0 -180z"/>
<path d="M7120 2385 l0 -105 25 0 25 0 0 105 0 105 -25 0 -25 0 0 -105z"/>
<path d="M3785 2440 c-193 -4 -126 -6 293 -8 356 -1 542 1 542 8 0 10 -362 10
-835 0z"/>
<path d="M7940 2440 c0 -7 181 -9 528 -8 470 2 499 2 262 9 -425 11 -790 10
-790 -1z"/>
</g>
</svg>
